<?xml version="1.0" encoding="UTF-8"?>
<svg id="Layer_2" xmlns="http://www.w3.org/2000/svg" viewBox="0 0 1801.22 405.9">
  <defs>
    <style>
      .cls-1 {
        fill: #fff;
        fill-rule: evenodd;
      }
    </style>
  </defs>
  <g id="Layer_1-2" data-name="Layer_1">
    <g>
      <path class="cls-1" d="M1124.42,86.94v.03c-15-14.69-32.82-26.23-53.5-34.64-20.68-8.71-43.18-13.05-67.46-13.05s-46.78,4.34-67.46,13.05c-20.68,8.4-38.67,20.08-53.94,35.07-15.3,14.69-27.27,32.08-35.98,52.16-8.4,19.78-12.58,40.93-12.58,63.39v.91c0,22.5,4.2,43.62,12.58,63.39,8.71,19.78,20.54,37.03,35.51,51.72,15,14.69,32.82,26.37,53.5,35.07,20.68,8.4,43.18,12.58,67.46,12.58s46.78-4.2,67.46-12.58c20.68-8.71,38.67-20.38,53.97-35.07,15.3-15,27.14-32.38,35.51-52.16,8.71-20.08,13.05-41.36,13.05-63.86v-.91c0-22.49-4.34-43.62-13.05-63.39-8.4-19.78-20.08-37.03-35.07-51.72ZM1085.61,203.84v.03c0,11.4-1.95,22.19-5.85,32.38-3.9,10.19-9.28,19.17-16.18,26.97-6.89,7.5-15.3,13.49-25.19,17.99-9.89,4.5-20.82,6.76-32.82,6.76s-22.93-2.25-32.82-6.76c-9.89-4.81-18.43-11.1-25.63-18.9-6.89-7.8-12.28-16.78-16.18-26.97-3.9-10.19-5.85-20.98-5.85-32.38v-.91c0-11.4,1.79-22.19,5.38-32.38,3.9-10.19,9.28-19.03,16.18-26.53,7.2-7.8,15.6-13.93,25.19-18.43,9.89-4.5,20.85-6.76,32.82-6.76s22.93,2.39,32.82,7.2c9.89,4.5,18.43,10.63,25.63,18.43,7.2,7.8,12.74,16.78,16.64,26.97,3.9,10.19,5.85,20.98,5.85,32.38v.91Z"/>
      <path class="cls-1" d="M1402.41,264.57c-4.81,4.5-10.05,8.54-15.74,12.14-5.38,3.3-11.54,5.85-18.43,7.64-6.59,1.79-13.93,2.69-22.03,2.69-11.1,0-21.29-2.09-30.57-6.29-8.98-4.5-16.78-10.49-23.37-17.99-6.59-7.5-11.84-16.34-15.74-26.53-3.6-10.49-5.38-21.59-5.38-33.26v-.91c0-11.4,1.79-22.19,5.38-32.38,3.9-10.19,9.15-19.03,15.74-26.53,6.59-7.5,14.39-13.35,23.37-17.52,9.28-4.5,19.47-6.76,30.57-6.76,15.3,0,28.32,3.3,39.11,9.89,10.79,6.59,20.68,15.6,29.66,26.97l65.65-50.81c-6.89-9.59-14.83-18.43-23.84-26.53-8.71-8.1-18.59-15-29.66-20.68-10.79-5.99-22.77-10.49-35.98-13.49-13.18-3.3-27.88-4.94-44.06-4.94-23.98,0-46.17,4.2-66.55,12.58-20.08,8.4-37.46,20.08-52.16,35.07-14.69,14.69-26.23,32.08-34.64,52.16-8.4,19.78-12.58,41.06-12.58,63.86v.91c0,23.37,4.2,45.13,12.58,65.21,8.71,19.78,20.24,37.02,34.64,51.72,14.69,14.39,31.92,25.63,51.72,33.73,19.78,8.1,40.93,12.14,63.39,12.14,17.39,0,32.99-1.79,46.78-5.38,14.09-3.6,26.67-8.54,37.77-14.83,11.4-6.29,21.42-13.79,30.13-22.5,8.98-8.71,17.25-18.13,24.72-28.32l-65.64-46.78c-4.81,5.69-9.75,10.93-14.83,15.74Z"/>
      <path class="cls-1" d="M1679.65,183.32l117.58-133.54h-89.32c-8.06,0-15.72,3.54-20.94,9.69l-142.98,168.48,44.28-74.82V49.78h-86.08v283.1c0,15.17,12.3,27.47,27.47,27.47h58.61v-80.28l31.48-35.05,69.92,103.27c5.11,7.54,13.63,12.07,22.75,12.07h88.81l-121.57-177.02Z"/>
      <path class="cls-1" d="M809.93,215.19c11.62-15.79,17.41-35.73,17.41-59.85v-.91c0-30.68-9.23-54.93-27.69-72.81-10.41-10.71-23.98-19.06-40.65-25.02-16.67-5.96-37.08-8.93-61.2-8.93h-147.85v285.21c0,15.17,12.3,27.47,27.47,27.47h59.19v-94.71h37.96l54.83,82.45c5.09,7.66,13.68,12.26,22.87,12.26h85.34l-74.6-108.99c19.67-8.35,35.29-20.41,46.91-36.17ZM728.18,187.94c-8.05,6.56-19.5,9.83-34.39,9.83h-57.19v-75.04h56.72c14.58,0,26.07,3.13,34.39,9.39,8.35,5.96,12.5,15.19,12.5,27.69v.91l.03-.03c0,11.32-4.01,20.41-12.06,27.25Z"/>
      <path class="cls-1" d="M329.69,0H76.24C34.14,0,0,34.11,0,76.21v253.47c0,42.1,34.11,76.21,76.21,76.21h253.47c42.1,0,76.21-34.11,76.21-76.21V76.21c0-42.1-34.11-76.21-76.21-76.21ZM356.21,245.37c-5.01,10.6-15.69,17.37-27.41,17.37h-62.13l85.37,103.79h-78.51l-94.46-114.85c-7.45-9.06-9.01-21.6-4-32.21,5.01-10.6,15.69-17.37,27.41-17.37h62.13l-69.65-84.69-69.65,84.69H46.79L171.54,50.43c5.76-7,14.35-11.06,23.41-11.06s17.66,4.06,23.41,11.06l133.84,162.73c7.45,9.06,9.01,21.6,4,32.21Z"/>
    </g>
  </g>
</svg>